<?xml version="1.0" encoding="UTF-8"?>
<svg version="1.1" xmlns="http://www.w3.org/2000/svg" width="512" height="512">
<path d="M0 0 C3.47485838 2.07012839 5.74352278 4.11634312 7 8 C7.49866403 13.16526621 6.09555542 16.42445294 3.5 20.75 C3.10474121 21.430625 2.70948242 22.11125 2.30224609 22.8125 C-2.14201389 30.3924231 -6.80133687 37.84715478 -11.4296875 45.31542969 C-16.8971334 54.1458503 -22.21792427 63.05769529 -27.5 72 C-33.86866005 82.77827359 -40.33946003 93.48021141 -46.93481445 104.12182617 C-52.71641078 113.47739545 -58.32460548 122.93100083 -63.92041016 132.3984375 C-69.1791516 141.29236001 -74.51371975 150.12690512 -79.99316406 158.88720703 C-87.13860586 170.3610941 -93.96253496 182.03120394 -100.84078979 193.66635132 C-103.87173069 198.79091339 -106.92889488 203.89940632 -110 209 C-98.25612329 208.45039678 -86.68478971 206.61153303 -75.06695747 204.90056992 C-71.38100731 204.35830175 -67.69418913 203.82233929 -64.00706482 203.28811646 C-53.53340048 201.769723 -43.06110204 200.24211537 -32.59008789 198.70556641 C-26.16371065 197.76261673 -19.73597089 196.82930076 -13.30744743 195.90109634 C-10.86411908 195.5464681 -8.42128635 195.18840739 -5.9789753 194.82683945 C-2.57250004 194.32270544 0.83542652 193.82979386 4.24389648 193.33935547 C5.24918396 193.18771942 6.25447144 193.03608337 7.29022217 192.87985229 C18.5398946 191.28862233 18.5398946 191.28862233 23.875 195 C26.319477 198.45102635 26.91248333 200.41363939 26.55571842 204.58297062 C24.52069732 213.43404628 11.71841167 222.42146331 5.38891602 228.74047852 C4.01151205 230.11923933 2.63432051 231.4982124 1.25732422 232.87738037 C-2.46555504 236.60480017 -6.19156853 240.32907182 -9.91830707 244.05263257 C-13.82782288 247.9596073 -17.73488763 251.86903194 -21.64234924 255.77806091 C-28.20320961 262.34073787 -34.76616936 268.9013098 -41.33032227 275.46069336 C-48.90697707 283.03190654 -56.48002283 290.6067153 -64.05120414 298.18340164 C-70.56506998 304.70181313 -77.08089216 311.21826423 -83.59833771 317.73309654 C-87.48509015 321.6182942 -91.3711739 325.50415424 -95.25549126 329.39178658 C-98.9082613 333.04745644 -102.56349037 336.70065001 -106.22058868 340.35198975 C-107.55813786 341.68822263 -108.89484788 343.02529613 -110.23063087 344.3632946 C-122.15197316 356.30257685 -122.15197316 356.30257685 -128.40243626 361.62716579 C-130.64754753 363.55645692 -132.73521744 365.62280066 -134.8203125 367.72265625 C-135.6747998 368.58044678 -136.52928711 369.4382373 -137.40966797 370.32202148 C-138.75375732 371.67855835 -138.75375732 371.67855835 -140.125 373.0625 C-141.0805937 374.02251375 -142.03649184 374.98222453 -142.99267578 375.94165039 C-145.9979755 378.95826369 -148.99929612 381.97881596 -152 385 C-155.48293011 388.50670151 -158.96756502 392.01167466 -162.45648193 395.51242065 C-163.83653133 396.8988534 -165.21347744 398.28837298 -166.59033203 399.67797852 C-171.00621219 404.1109293 -175.48314659 408.38008994 -180.23071289 412.45556641 C-182.78542959 414.68561165 -185.14886538 417.05462377 -187.53125 419.46875 C-188.01146606 419.95275269 -188.49168213 420.43675537 -188.9864502 420.9354248 C-190.49349407 422.45447309 -191.99718686 423.97676688 -193.5 425.5 C-199.22322557 431.30099182 -204.92197839 437.04776461 -211.12304688 442.34570312 C-214.58121134 445.39363789 -217.77362143 448.71060623 -221 452 C-225.59002151 456.67967036 -230.2512494 461.16275827 -235.21875 465.44140625 C-237.41700048 467.36487542 -239.46655152 469.40398387 -241.5 471.5 C-244.90370276 474.95048906 -248.42438989 478.16637394 -252.1015625 481.3203125 C-253.97970753 482.98204576 -255.74305516 484.71125525 -257.5 486.5 C-263.35524149 492.42073636 -269.731656 497.6449555 -276.25 502.8125 C-276.85271729 503.29299805 -277.45543457 503.77349609 -278.07641602 504.26855469 C-285.3729242 510 -285.3729242 510 -290 510 C-289.58381183 502.66468354 -287.73721252 497.24635394 -284.5 490.6875 C-284.01934082 489.6989502 -283.53868164 488.71040039 -283.04345703 487.69189453 C-277.48110196 476.54118397 -270.90363927 466.01392693 -264.34124756 455.43763733 C-260.27335734 448.86216101 -256.38684558 442.18347564 -252.5 435.5 C-246.6280753 425.4224028 -240.64787525 415.41839901 -234.57226562 405.46240234 C-228.80962085 396.01688431 -223.13484863 386.52226394 -217.5 377 C-210.89127962 365.83352415 -204.2055918 354.71871833 -197.45141602 343.63964844 C-188.84544016 329.49944921 -180.42577673 315.2480596 -172 301 C-172.33 300.67 -172.66 300.34 -173 300 C-174.60844534 300.13626709 -176.21004615 300.35361887 -177.80517578 300.60105896 C-178.84531326 300.75955322 -179.88545074 300.91804749 -180.95710754 301.0813446 C-182.10821518 301.26260391 -183.25932281 301.44386322 -184.4453125 301.63061523 C-185.65019821 301.81578705 -186.85508392 302.00095886 -188.09648132 302.19174194 C-190.72477903 302.59636749 -193.35267326 303.00301643 -195.98013306 303.41299248 C-200.14033261 304.06191969 -204.30185039 304.70208621 -208.46362305 305.34083557 C-218.80875458 306.93003268 -229.15202713 308.53121638 -239.49505615 310.1340332 C-247.51750149 311.37708143 -255.54041251 312.61695058 -263.56475449 313.84770352 C-267.69528718 314.48159801 -271.82477031 315.12183285 -275.95355892 315.76698482 C-279.14139025 316.26335959 -282.33056794 316.7509492 -285.51953125 317.23999023 C-286.65444504 317.41922531 -287.78935883 317.59846039 -288.95866394 317.78312683 C-305.04099696 320.2243769 -305.04099696 320.2243769 -310 317.125 C-312.88492653 314.05976556 -313.66228415 311.58062982 -313.58578491 307.31161499 C-312.80958072 304.2485705 -311.4108166 302.81553985 -309.25244141 300.51416016 C-308.4314093 299.63673157 -307.6103772 298.75930298 -306.76446533 297.85528564 C-302.24780682 293.19024244 -297.68495426 288.5759074 -293.07661057 284.00144577 C-291.29042742 282.22825854 -289.50759088 280.45176285 -287.72549438 278.67446899 C-283.94483622 274.90512201 -280.1602252 271.13975997 -276.375 267.375 C-271.97535624 262.99909507 -267.57742385 258.62149709 -263.18370438 254.2396431 C-261.44048658 252.50283204 -259.69425069 250.769097 -257.94784546 249.03549194 C-256.86530822 247.95659168 -255.78291363 246.87754826 -254.70068359 245.79833984 C-253.29911514 244.40462662 -253.29911514 244.40462662 -251.86923218 242.98275757 C-249.79091191 240.86844905 -247.84607893 238.67529553 -245.92054653 236.42138767 C-241.62225018 231.49512443 -237.02927589 226.89052319 -232.40202332 222.27503967 C-231.44436759 221.31622958 -230.48692961 220.35720195 -229.52968866 219.39797777 C-226.91783782 216.78197753 -224.3029081 214.16907458 -221.68742812 211.55670345 C-218.86019252 208.73173951 -216.03584719 205.90388836 -213.21112061 203.07641602 C-207.68628346 197.54714209 -202.15875836 192.02056293 -196.63025095 186.494959 C-192.13918019 182.00614913 -187.64908948 177.51636112 -183.15969276 173.025877 C-182.52011019 172.38614119 -181.88052762 171.74640539 -181.22156376 171.08728365 C-179.92223673 169.78763689 -178.62291193 168.48798789 -177.32358936 167.18833666 C-165.15414784 155.01604684 -152.98164852 142.84681859 -140.80809436 130.67864203 C-130.35640692 120.23142847 -119.90735312 109.78158683 -109.46020508 99.32983398 C-97.3254438 87.18972656 -85.18906905 75.0512359 -73.05009729 62.91533846 C-71.7571389 61.62269862 -70.46418259 60.33005669 -69.17122841 59.03741264 C-68.53506528 58.40140379 -67.89890214 57.76539493 -67.24346134 57.11011307 C-62.75397086 52.62148715 -58.26564411 48.13169958 -53.77776146 43.64146614 C-48.31551514 38.17642147 -42.85150341 32.71314938 -37.3851886 27.25217403 C-34.59483888 24.46445984 -31.80530846 21.67593835 -29.01792336 18.88525963 C-26.46973994 16.33411064 -23.91928544 13.78525594 -21.36694864 11.23826247 C-20.00013325 9.87310464 -18.63579007 8.50547301 -17.27151746 7.13777405 C-16.46718787 6.33605221 -15.66285829 5.53433038 -14.83415508 4.70831394 C-14.13698586 4.01130707 -13.43981664 3.3143002 -12.72152108 2.59617192 C-9.01116469 -0.84402219 -4.82683038 -0.60961699 0 0 Z M-63 84 C-63.63684219 84.63776399 -64.27368439 85.27552797 -64.92982483 85.93261814 C-80.4434752 101.46837665 -95.95991101 117.00134837 -111.47943115 132.53124332 C-118.98455888 140.0415219 -126.4887496 147.55273223 -133.99072266 155.06616211 C-140.53132225 161.61674556 -147.0736924 168.16555464 -153.61817265 174.71226114 C-157.08163041 178.17701973 -160.54421013 181.64264545 -164.00466919 185.11039925 C-167.26592113 188.37846983 -170.52954652 191.64415164 -173.79495811 194.9080658 C-174.98899518 196.10237657 -176.18218423 197.29753591 -177.3744297 198.49363518 C-182.82709339 203.9630489 -188.28211029 209.3616292 -194.15647888 214.38372326 C-197.61121522 217.41260637 -200.82551496 220.68675087 -204.06835938 223.93896484 C-204.83030609 224.69915924 -205.59225281 225.45935364 -206.37728882 226.24258423 C-208.86861274 228.72954374 -211.35630508 231.2200987 -213.84375 233.7109375 C-215.58094927 235.44746267 -217.31829692 237.1838394 -219.05578613 238.92007446 C-222.6817214 242.54454053 -226.30585408 246.17079681 -229.92871094 249.79833984 C-234.58391546 254.45927108 -239.24363494 259.11565872 -243.90468597 263.77074242 C-247.48538422 267.34783944 -251.0637126 270.92729946 -254.64131165 274.50749588 C-256.35987342 276.2267266 -258.07918347 277.94520966 -259.79924011 279.66294479 C-262.19084562 282.05202778 -264.5792513 284.444263 -266.96679688 286.83740234 C-268.04198074 287.90954987 -268.04198074 287.90954987 -269.1388855 289.00335693 C-269.78362823 289.65091949 -270.42837097 290.29848206 -271.09265137 290.96566772 C-271.65745964 291.53085302 -272.22226791 292.09603832 -272.80419159 292.67835045 C-274.11182044 293.82653219 -274.11182044 293.82653219 -274 295 C-262.45694932 294.44301498 -251.09481539 292.89670651 -239.65855598 291.30152702 C-236.28300227 290.83082818 -232.90668997 290.36594764 -229.53013611 289.90248108 C-221.15636811 288.75192673 -212.783939 287.59175136 -204.41149902 286.43157959 C-197.3061617 285.44733729 -190.20031918 284.46690509 -183.09374809 283.49160957 C-179.77461119 283.03449897 -176.4562857 282.5717907 -173.13795471 282.10887146 C-171.10120422 281.8287303 -169.0644172 281.54885458 -167.02758789 281.26928711 C-166.11162338 281.13994781 -165.19565887 281.01060852 -164.25193787 280.87734985 C-151.21425645 279.10528472 -151.21425645 279.10528472 -147.625 281.75 C-145.0778032 285.27688787 -145.0778032 285.27688787 -145 288 C-147.14067788 293.72052772 -150.12860664 298.63553005 -153.4375 303.75 C-154.52228249 305.44652055 -155.60691378 307.14313779 -156.69140625 308.83984375 C-157.51922607 310.12930908 -157.51922607 310.12930908 -158.36376953 311.44482422 C-160.88850266 315.38750654 -163.38031323 319.3507685 -165.875 323.3125 C-170.82573079 331.15734108 -175.8048411 338.98395816 -180.78857422 346.80786133 C-184.5386094 352.697161 -188.27542768 358.59456801 -192 364.5 C-199.22858035 375.95950384 -206.51156556 387.38429513 -213.79101562 398.81152344 C-219.87604663 408.36468961 -225.95693362 417.92021743 -232 427.5 C-236.48714257 434.61235617 -240.98817429 441.71577414 -245.5 448.8125 C-246.0878125 449.73804688 -246.675625 450.66359375 -247.28125 451.6171875 C-250.14047595 456.11120237 -253.02182265 460.58383015 -256 465 C-255.67 465.66 -255.34 466.32 -255 467 C-248.59870643 460.62197657 -242.200192 454.2411814 -235.80511379 447.85692596 C-232.83487173 444.89188083 -229.86371591 441.92776406 -226.89038086 438.96582031 C-224.0157683 436.10215082 -221.1436751 433.23597592 -218.27324104 430.36811829 C-217.18302032 429.27973138 -216.09192658 428.19221817 -214.99990654 427.1056366 C-209.71135866 421.84235839 -204.51932651 416.5601283 -199.66419983 410.88781738 C-196.50568027 407.30488941 -193.08275493 403.98162561 -189.6875 400.625 C-188.91494873 399.85623535 -188.14239746 399.0874707 -187.34643555 398.29541016 C-184.07623964 395.0414017 -180.8000651 391.79343734 -177.52441406 388.54492188 C-175.11834715 386.15704648 -172.71536962 383.76609207 -170.3125 381.375 C-169.58313232 380.65393066 -168.85376465 379.93286133 -168.10229492 379.18994141 C-164.13119608 375.23764555 -160.37074693 371.18125742 -156.71337891 366.93823242 C-153.87410687 363.72635144 -150.83177848 360.72844884 -147.78125 357.71875 C-147.11967896 357.06096558 -146.45810791 356.40318115 -145.77648926 355.72546387 C-142.98421856 352.94933442 -140.18594584 350.17928463 -137.38818359 347.40869141 C-135.32959102 345.3683292 -133.27412097 343.32485669 -131.21875 341.28125 C-130.59875122 340.66954956 -129.97875244 340.05784912 -129.33996582 339.4276123 C-125.6058782 335.71416752 -122.10009609 331.86726121 -118.65783691 327.88269043 C-116.31345541 325.22033892 -113.83722477 322.74303367 -111.3125 320.25 C-110.5532019 319.49638184 -110.5532019 319.49638184 -109.77856445 318.72753906 C-107.65540351 316.6204205 -105.52619158 314.51945787 -103.39746094 312.41796875 C-96.24290471 305.40390807 -96.24290471 305.40390807 -89.5 298 C-84.19196532 291.77944604 -78.21283328 286.15892134 -72.39746094 280.41796875 C-67.01333498 275.09656406 -61.7105046 269.77854837 -56.79296875 264.015625 C-52.04998865 258.68364737 -46.81793697 253.78515144 -41.73828125 248.77734375 C-37.20941547 244.28768893 -32.836655 239.75928115 -28.68896484 234.91601562 C-25.63871327 231.45571289 -22.34376756 228.23940644 -19.0625 225 C-18.37865234 224.32066406 -17.69480469 223.64132813 -16.99023438 222.94140625 C-15.32912841 221.29191641 -13.66571487 219.6448332 -12 218 C-15.13678132 217.02144787 -17.43756211 217.02113428 -20.67240906 217.52513123 C-21.60728653 217.66679718 -22.542164 217.80846313 -23.50537109 217.954422 C-24.5241333 218.11697983 -25.54289551 218.27953766 -26.5925293 218.44702148 C-27.67105667 218.61268616 -28.74958405 218.77835083 -29.86079407 218.94903564 C-32.20432925 219.31006202 -34.54730481 219.67473541 -36.88977623 220.04260063 C-40.60063084 220.6252407 -44.31285625 221.19827295 -48.02558899 221.76881409 C-55.24436215 222.87983757 -62.46151402 224.00112742 -69.6783371 225.12472534 C-79.47016794 226.64905995 -89.2628487 228.16766923 -99.05747414 229.67396736 C-102.70813782 230.23781809 -106.35744588 230.80991814 -110.00675964 231.38243103 C-112.25794667 231.72986525 -114.50918992 232.07693535 -116.76049805 232.42358398 C-118.27345963 232.66438438 -118.27345963 232.66438438 -119.81698608 232.91004944 C-135.22651717 235.256217 -135.22651717 235.256217 -140 231.875 C-142.24349505 228.64997587 -142.73348345 226.88976565 -143 223 C-142.02026367 220.18457031 -142.02026367 220.18457031 -140.48046875 217.328125 C-139.92020996 216.28076172 -139.35995117 215.23339844 -138.78271484 214.15429688 C-136.03966686 209.30080742 -133.21987814 204.50684425 -130.3125 199.75 C-128.98222791 197.55389705 -127.65284478 195.35725544 -126.32421875 193.16015625 C-125.80341736 192.30040947 -125.80341736 192.30040947 -125.27209473 191.42329407 C-121.41457991 185.04891234 -117.62372691 178.63530293 -113.8296814 172.22302246 C-106.77793834 160.30785434 -99.64850413 148.44430372 -92.44091797 136.62280273 C-85.98312888 126.01917044 -79.6470155 115.34426513 -73.33007812 104.65625 C-72.94722656 104.00918091 -72.564375 103.36211182 -72.16992188 102.69543457 C-71.43330004 101.45014332 -70.69759102 100.20431157 -69.96289062 98.95788574 C-68.00988425 95.65599256 -65.98832014 92.41458949 -63.890625 89.203125 C-62.95476562 87.61757812 -62.95476562 87.61757812 -62 86 C-62.33 85.34 -62.66 84.68 -63 84 Z " fill="#000000" transform="translate(399,0)"/>
</svg>
